<?xml version="1.0" standalone="no"?>
<!DOCTYPE svg PUBLIC "-//W3C//DTD SVG 20010904//EN"
 "http://www.w3.org/TR/2001/REC-SVG-20010904/DTD/svg10.dtd">
<svg version="1.0" xmlns="http://www.w3.org/2000/svg"
 width="900.000000pt" height="900.000000pt" viewBox="0 0 900.000000 900.000000"
 preserveAspectRatio="xMidYMid meet">
<metadata>
Created by potrace 1.10, written by Peter Selinger 2001-2011
</metadata>
<g transform="translate(0.000000,900.000000) scale(0.100000,-0.100000)"
fill="#000000" stroke="none">
<path d="M4345 6960 c-27 -4 -84 -9 -125 -9 -41 -1 -100 -8 -130 -16 -30 -8
-69 -15 -86 -15 -18 0 -54 -6 -80 -14 -51 -15 -115 -31 -174 -46 -19 -4 -51
-14 -70 -20 -94 -34 -117 -43 -143 -56 -16 -8 -34 -14 -40 -14 -11 0 -126 -52
-157 -71 -8 -5 -22 -12 -30 -15 -8 -3 -22 -10 -30 -15 -8 -5 -24 -13 -35 -18
-11 -5 -37 -21 -58 -35 -21 -14 -40 -26 -44 -26 -12 0 -92 -68 -164 -140 -70
-70 -157 -175 -172 -210 -4 -8 -16 -28 -27 -45 -11 -16 -23 -37 -26 -45 -3 -8
-13 -31 -22 -50 -39 -88 -62 -153 -72 -205 -4 -22 -12 -58 -18 -80 -6 -22 -12
-100 -14 -174 -3 -151 7 -174 42 -97 12 25 28 50 36 57 8 6 14 16 14 21 0 18
149 197 240 289 36 36 161 140 235 195 126 93 193 135 315 194 25 12 52 26 60
31 8 5 22 12 30 15 8 3 28 12 43 20 16 7 35 14 44 14 8 0 27 6 41 14 35 17 88
36 132 46 19 4 49 13 65 18 46 17 123 33 200 42 39 5 88 14 110 19 53 14 458
13 515 0 25 -6 74 -14 110 -19 73 -10 150 -26 195 -42 17 -5 46 -14 65 -18 44
-10 97 -29 132 -46 14 -8 33 -14 41 -14 14 0 52 -16 97 -42 8 -4 22 -11 30
-14 24 -10 94 -44 110 -54 8 -5 51 -30 95 -56 181 -107 396 -289 513 -434 20
-25 41 -49 47 -55 22 -21 75 -93 75 -103 0 -5 6 -15 14 -21 8 -7 24 -32 36
-57 35 -76 45 -53 42 92 -2 118 -17 221 -44 299 -5 17 -14 45 -18 64 -5 18
-13 38 -19 44 -6 6 -11 21 -11 33 0 12 -7 27 -15 34 -8 7 -15 21 -15 31 0 10
-5 21 -11 24 -5 4 -14 17 -20 28 -59 137 -285 363 -447 447 -23 12 -45 26 -48
31 -3 5 -13 9 -23 9 -10 0 -24 7 -31 15 -7 8 -20 15 -30 15 -10 0 -23 7 -30
15 -7 8 -23 15 -35 15 -12 0 -28 7 -35 15 -7 8 -22 15 -34 15 -11 0 -30 7 -40
15 -11 8 -28 15 -37 15 -10 0 -30 6 -46 14 -35 17 -87 35 -133 46 -59 15 -123
31 -174 46 -26 8 -63 14 -81 14 -19 0 -46 5 -62 11 -54 21 -485 43 -568 29z
m425 -114 c25 -3 88 -12 140 -21 52 -9 104 -17 115 -18 11 -1 25 -5 30 -9 6
-4 38 -13 70 -22 117 -29 178 -47 232 -72 31 -13 61 -24 68 -24 24 0 300 -144
360 -188 88 -64 203 -169 230 -211 14 -20 40 -58 59 -85 31 -44 46 -75 92
-184 36 -85 0 -95 -78 -22 -29 27 -67 63 -85 80 -18 16 -35 30 -38 30 -3 0
-42 29 -86 65 -45 36 -86 65 -91 65 -6 0 -24 12 -42 26 -40 33 -154 104 -167
104 -5 0 -41 18 -80 40 -39 22 -73 40 -77 40 -3 0 -24 9 -46 19 -55 26 -241
90 -291 101 -22 5 -58 14 -80 20 -189 53 -637 72 -838 36 -49 -9 -93 -14 -98
-10 -6 3 -15 1 -22 -5 -7 -5 -42 -16 -77 -24 -99 -22 -301 -86 -338 -108 -18
-10 -37 -19 -43 -19 -27 0 -264 -127 -359 -192 -30 -21 -60 -38 -67 -38 -6 0
-13 -4 -15 -9 -1 -5 -34 -32 -73 -61 -74 -56 -91 -71 -169 -150 -30 -31 -58
-50 -72 -50 -12 0 -25 -6 -27 -12 -3 -7 -6 -2 -6 11 -2 41 45 154 90 220 24
35 52 78 63 95 22 37 142 156 206 205 66 51 308 178 409 215 20 8 54 20 76 29
88 32 112 40 170 54 179 44 353 72 500 79 66 3 122 8 125 11 5 5 253 -3 330
-11z"/>
<path d="M2479 6118 c-7 -13 -15 -25 -19 -28 -3 -3 -24 -34 -46 -69 -21 -35
-47 -75 -56 -90 -10 -14 -22 -35 -28 -46 -6 -11 -19 -33 -30 -50 -11 -16 -22
-37 -26 -45 -3 -8 -9 -22 -14 -30 -11 -18 -76 -152 -98 -200 -8 -19 -21 -47
-29 -62 -7 -14 -13 -33 -13 -41 0 -9 -6 -28 -14 -44 -18 -36 -36 -88 -46 -133
-4 -19 -13 -48 -18 -65 -17 -50 -34 -127 -42 -187 -4 -31 -11 -62 -15 -68 -4
-7 -12 -65 -16 -129 -4 -64 -11 -154 -15 -199 -8 -89 9 -370 27 -462 6 -30 15
-80 19 -111 4 -30 12 -65 19 -77 6 -11 11 -35 11 -52 0 -17 5 -41 12 -53 6
-12 15 -38 19 -57 9 -43 27 -96 45 -133 8 -16 14 -35 14 -44 0 -8 6 -27 13
-41 8 -15 21 -43 29 -62 45 -100 90 -190 98 -195 6 -4 10 -12 10 -20 0 -16 41
-79 109 -170 100 -134 242 -249 401 -325 44 -21 64 -30 143 -64 21 -9 49 -16
63 -16 14 0 35 -5 47 -12 20 -10 261 -36 350 -38 33 0 37 3 37 24 0 17 -7 26
-25 30 -28 7 -128 66 -133 78 -2 4 -10 8 -18 8 -8 0 -14 4 -14 8 0 4 -14 16
-30 26 -49 28 -234 204 -330 312 -39 44 -120 152 -120 159 0 4 -13 24 -28 44
-16 20 -32 43 -35 51 -4 8 -16 29 -26 45 -11 17 -36 64 -56 105 -20 41 -41 82
-46 90 -5 8 -12 22 -15 30 -31 82 -39 102 -74 200 -6 19 -16 54 -21 78 -5 23
-13 51 -19 61 -18 35 -11 90 22 156 25 53 42 72 87 103 l56 37 242 -1 c200 -1
250 -4 295 -19 55 -18 112 -41 138 -56 8 -4 35 -19 60 -31 80 -41 413 -390
508 -532 118 -176 205 -382 232 -546 5 -30 14 -71 20 -90 5 -19 10 -96 10
-172 0 -111 -3 -143 -17 -169 -23 -42 -92 -118 -118 -131 -11 -5 -40 -20 -65
-33 -25 -13 -54 -24 -65 -25 -11 0 -31 -7 -45 -15 -14 -8 -41 -15 -60 -15 -19
0 -71 -7 -115 -15 -160 -29 -423 -12 -632 42 -16 4 -23 1 -23 -9 0 -19 24 -40
75 -68 22 -12 54 -30 70 -41 17 -10 39 -23 50 -29 11 -6 34 -19 50 -29 30 -19
208 -109 275 -138 19 -9 47 -22 62 -30 14 -7 33 -13 41 -13 9 0 28 -6 44 -14
37 -18 90 -36 133 -45 19 -4 45 -13 57 -19 12 -7 35 -12 51 -12 16 0 46 -7 65
-15 20 -8 53 -15 73 -15 20 0 59 -6 87 -14 142 -39 652 -39 794 0 28 8 66 14
85 14 18 0 53 6 78 14 43 14 92 27 170 46 46 11 98 29 133 46 16 8 35 14 44
14 8 0 27 6 41 13 15 8 43 21 62 30 67 30 245 119 275 138 17 10 37 22 45 26
8 3 33 18 55 32 22 14 56 34 75 44 46 25 70 47 70 64 0 15 -41 18 -55 4 -17
-16 -296 -51 -404 -51 -112 0 -288 22 -362 45 -26 8 -52 15 -58 15 -28 0 -139
64 -179 103 -75 74 -84 104 -79 274 3 139 15 228 39 298 5 17 14 46 18 65 18
79 98 263 151 345 10 17 22 37 26 45 44 96 444 522 533 568 25 12 52 27 60 31
26 15 83 38 136 55 41 14 99 17 295 19 l244 2 41 -27 c98 -64 161 -199 124
-269 -6 -10 -14 -38 -19 -61 -5 -24 -15 -59 -21 -78 -37 -104 -42 -115 -85
-215 -25 -58 -87 -180 -106 -210 -10 -16 -22 -37 -26 -45 -19 -40 -113 -169
-188 -259 -66 -79 -279 -280 -325 -307 -16 -10 -30 -22 -30 -26 0 -4 -6 -8
-14 -8 -8 0 -16 -4 -18 -8 -5 -12 -105 -71 -133 -78 -18 -4 -25 -13 -25 -30 0
-29 -1 -29 195 -13 77 6 158 17 180 25 23 8 52 14 66 14 14 0 34 7 45 15 10 8
27 15 37 15 11 0 31 6 45 14 15 7 47 23 72 35 25 12 59 31 75 41 17 11 37 23
45 27 26 12 123 89 181 144 116 111 218 272 317 499 8 19 21 47 29 62 7 14 13
33 13 41 0 9 6 28 14 44 18 37 36 90 45 133 4 19 13 45 19 57 7 12 12 35 12
51 0 16 7 46 15 65 8 20 15 49 15 64 0 15 6 60 15 98 28 134 39 379 26 558 -7
89 -17 187 -23 217 -6 30 -14 80 -18 111 -4 30 -12 65 -19 77 -6 11 -11 35
-11 52 0 17 -5 41 -12 53 -6 12 -15 38 -19 57 -9 43 -27 96 -45 133 -8 16 -14
35 -14 44 0 8 -6 27 -13 41 -8 15 -21 43 -29 62 -22 48 -87 182 -98 200 -5 8
-11 22 -14 30 -4 8 -15 29 -26 45 -11 17 -24 39 -30 50 -11 22 -19 34 -104
164 -33 50 -63 91 -68 91 -18 0 -17 -49 2 -109 11 -35 20 -78 20 -96 0 -17 7
-76 15 -131 18 -117 19 -228 4 -308 -6 -32 -14 -88 -19 -125 -10 -78 -27 -146
-46 -183 -8 -14 -14 -33 -14 -41 0 -25 -84 -103 -135 -126 -54 -24 -140 -27
-245 -10 -36 6 -103 14 -150 19 -112 11 -231 37 -335 72 -16 5 -43 13 -60 18
-36 10 -88 28 -130 46 -57 23 -110 47 -125 56 -8 4 -22 11 -30 14 -8 3 -22 10
-30 15 -8 5 -22 12 -30 15 -8 3 -30 12 -47 20 -32 14 -73 32 -135 57 -54 22
-101 39 -128 44 -14 3 -39 11 -57 19 -17 8 -44 14 -60 14 -15 0 -50 7 -77 15
-66 20 -272 20 -349 0 -32 -8 -69 -15 -83 -15 -15 0 -40 -6 -57 -14 -18 -8
-43 -16 -57 -19 -28 -6 -77 -22 -130 -45 -19 -8 -51 -21 -70 -29 -72 -31 -105
-45 -120 -54 -8 -5 -22 -12 -30 -15 -8 -3 -22 -10 -30 -15 -8 -5 -22 -12 -30
-15 -8 -3 -28 -12 -43 -20 -16 -7 -37 -14 -47 -14 -9 0 -23 -6 -29 -14 -6 -8
-24 -16 -39 -19 -15 -2 -43 -10 -62 -17 -84 -31 -108 -38 -150 -49 -25 -7 -58
-15 -75 -17 -16 -3 -59 -11 -95 -19 -82 -18 -238 -36 -355 -42 -77 -4 -97 -2
-139 17 -52 24 -136 102 -136 127 0 8 -6 27 -14 41 -19 37 -36 105 -46 183 -5
37 -13 93 -19 125 -6 32 -11 87 -11 123 0 102 29 339 52 413 19 63 18 108 -2
108 -5 0 -15 -10 -21 -22z m-141 -530 c7 -7 12 -40 12 -77 1 -66 4 -87 35
-216 24 -99 51 -164 93 -229 37 -55 132 -135 162 -136 8 0 33 -6 55 -14 85
-29 406 -5 595 44 241 64 360 108 590 220 100 49 362 134 465 150 85 14 282
13 308 -2 12 -6 42 -15 67 -19 80 -13 160 -37 196 -58 19 -12 44 -21 56 -21
11 0 33 -9 48 -20 16 -11 43 -23 62 -26 18 -4 49 -16 68 -28 55 -33 202 -96
225 -96 11 0 34 -9 52 -20 18 -10 58 -26 90 -35 53 -15 90 -24 288 -69 81 -18
295 -35 405 -31 97 3 150 20 194 61 20 19 40 34 45 34 13 0 92 126 117 188 12
29 25 77 29 105 4 29 13 77 21 107 8 30 15 80 16 111 1 31 7 65 15 74 12 17
14 16 35 -10 39 -49 146 -330 153 -401 2 -18 8 -40 13 -50 6 -11 13 -41 17
-69 4 -27 13 -75 22 -105 25 -90 34 -521 14 -680 -19 -156 -29 -215 -38 -240
-6 -14 -14 -47 -18 -75 -4 -27 -13 -65 -19 -85 -7 -19 -21 -62 -31 -95 -10
-33 -24 -67 -30 -75 -6 -8 -21 -42 -34 -75 -50 -129 -46 -122 -124 -260 -30
-55 -88 -138 -128 -184 -74 -85 -218 -201 -250 -201 -10 0 -22 -6 -26 -13 -14
-22 -70 -57 -92 -57 -12 0 -40 -9 -62 -20 -35 -19 -40 -19 -46 -4 -4 10 4 25
21 40 14 14 26 28 26 33 0 4 33 42 73 83 82 86 140 160 233 303 72 111 224
409 224 440 0 11 6 29 14 40 13 20 16 32 37 125 31 142 32 165 9 241 -13 40
-33 82 -45 93 -12 12 -24 26 -26 31 -11 29 -101 96 -162 120 -64 25 -75 26
-244 26 -168 -1 -285 -12 -328 -31 -11 -5 -42 -16 -70 -24 -53 -15 -134 -54
-201 -98 -79 -51 -396 -379 -477 -494 -59 -84 -117 -173 -117 -181 0 -4 -18
-44 -39 -88 -22 -44 -42 -87 -45 -95 -3 -8 -10 -22 -15 -30 -10 -18 -34 -107
-68 -255 -28 -124 -38 -371 -17 -416 7 -13 20 -44 30 -69 26 -62 143 -175 214
-207 98 -44 193 -71 290 -83 153 -18 177 -39 93 -79 -27 -12 -60 -29 -75 -37
-14 -8 -33 -14 -42 -14 -9 0 -24 -4 -34 -9 -45 -22 -185 -62 -252 -72 -41 -6
-119 -19 -173 -29 -152 -30 -537 -31 -711 -1 -70 12 -137 26 -148 32 -11 6
-37 13 -57 15 -20 3 -47 6 -61 8 -14 1 -47 12 -75 23 -27 12 -78 29 -113 38
-34 10 -67 24 -73 32 -6 7 -17 13 -24 13 -22 0 -76 32 -72 43 4 13 43 22 152
35 111 13 185 36 290 88 71 35 104 59 153 112 34 37 65 78 69 92 3 14 12 37
19 52 32 63 25 266 -14 458 -23 112 -87 300 -122 360 -4 8 -25 46 -45 85 -21
38 -56 94 -79 124 -22 31 -43 61 -46 68 -7 17 -161 193 -181 207 -9 6 -33 31
-54 56 -69 83 -227 219 -299 258 -71 39 -189 84 -256 97 -72 15 -432 15 -486
1 -149 -40 -272 -190 -275 -336 -2 -95 14 -166 72 -320 16 -41 29 -80 29 -87
0 -7 11 -29 25 -49 14 -20 25 -42 25 -49 0 -15 67 -145 86 -166 8 -8 14 -21
14 -28 0 -6 18 -34 40 -62 22 -28 40 -56 40 -63 0 -6 26 -42 58 -78 31 -37 75
-90 97 -119 22 -28 66 -77 98 -109 71 -71 75 -95 15 -85 -40 7 -87 29 -213 99
-63 36 -124 85 -181 146 -48 51 -154 195 -154 209 0 4 -11 24 -25 44 -13 20
-31 56 -39 79 -8 24 -27 65 -41 92 -14 27 -25 55 -25 61 0 7 -6 18 -14 24 -8
7 -20 35 -26 64 -7 29 -20 72 -30 97 -31 79 -60 184 -60 213 0 16 -4 36 -9 45
-8 15 -25 129 -38 247 -3 22 -5 135 -6 250 -1 186 2 229 27 380 15 94 35 180
43 193 8 13 12 30 9 37 -5 13 24 101 44 137 6 10 10 28 10 41 0 12 6 31 13 42
8 11 24 47 37 80 13 33 29 63 36 67 6 4 15 19 18 33 7 28 16 31 34 13z"/>
<path d="M4405 5063 c-197 -43 -361 -202 -422 -408 -18 -61 -17 -179 1 -220
87 -194 119 -238 223 -308 98 -65 178 -90 283 -88 47 0 96 5 110 10 14 5 43
14 65 20 23 6 63 25 90 42 57 37 145 118 145 134 0 6 13 29 29 51 16 21 40 71
53 109 23 65 24 78 17 176 -6 87 -13 116 -38 170 -80 167 -206 269 -376 305
-39 8 -154 12 -180 7z m195 -115 c98 -29 195 -102 236 -178 10 -19 24 -42 30
-50 6 -8 19 -50 29 -92 18 -75 18 -79 0 -155 -10 -43 -24 -85 -30 -93 -5 -8
-19 -31 -29 -50 -28 -51 -94 -111 -156 -141 -62 -30 -155 -59 -190 -59 -13 0
-48 7 -79 16 -179 51 -282 154 -325 322 -19 74 -18 107 6 192 17 60 69 148
110 185 42 39 133 95 156 96 9 0 33 7 52 15 40 15 121 12 190 -8z"/>
</g>
</svg>
